<svg xmlns="http://www.w3.org/2000/svg" width="1194" height="1317" viewBox="0 0 1194 1317">
<rect width="100%" height="100%" fill="black"/>
<path d="M 889 1060 L 888 1061 L 888 1066 L 889 1067 L 889 1072 L 893 1072 L 894 1071 L 925 1071 L 926 1070 L 956 1070 L 957 1069 L 985 1069 L 986 1068 L 1015 1068 L 1016 1067 L 1048 1067 L 1049 1066 L 1083 1066 L 1059 1066 L 1058 1065 L 1022 1065 L 1021 1064 L 990 1064 L 989 1063 L 962 1063 L 961 1062 L 933 1062 L 932 1061 L 903 1061 L 902 1060 Z  M 307 1060 L 306 1061 L 280 1061 L 279 1062 L 255 1062 L 254 1063 L 231 1063 L 230 1064 L 198 1064 L 197 1065 L 152 1065 L 151 1066 L 121 1066 L 158 1066 L 159 1067 L 191 1067 L 192 1068 L 224 1068 L 225 1069 L 254 1069 L 255 1070 L 284 1070 L 285 1071 L 317 1071 L 318 1072 L 319 1072 L 319 1060 Z  M 814 1040 L 813 1041 L 812 1041 L 809 1044 L 809 1046 L 808 1047 L 808 1072 L 809 1073 L 809 1075 L 811 1077 L 811 1078 L 812 1078 L 813 1079 L 842 1079 L 844 1077 L 845 1077 L 845 1076 L 846 1075 L 846 1073 L 847 1072 L 847 1058 L 829 1058 L 829 1063 L 830 1062 L 833 1062 L 834 1063 L 840 1063 L 842 1065 L 842 1070 L 841 1071 L 841 1072 L 839 1074 L 816 1074 L 814 1072 L 814 1071 L 813 1070 L 813 1050 L 814 1049 L 814 1047 L 815 1046 L 816 1046 L 817 1045 L 838 1045 L 839 1046 L 840 1046 L 841 1047 L 841 1050 L 842 1051 L 847 1051 L 847 1047 L 846 1046 L 846 1044 L 843 1041 L 842 1041 L 841 1040 Z  M 726 1040 L 726 1079 L 729 1079 L 730 1080 L 731 1080 L 731 1050 L 732 1049 L 733 1049 L 734 1050 L 734 1051 L 743 1060 L 743 1061 L 751 1069 L 751 1070 L 758 1077 L 758 1078 L 759 1079 L 760 1079 L 761 1080 L 762 1079 L 764 1079 L 765 1080 L 765 1040 L 760 1040 L 760 1069 L 759 1070 L 750 1061 L 750 1060 L 741 1051 L 741 1050 L 733 1042 L 733 1041 L 732 1040 Z  M 678 1040 L 678 1080 L 679 1079 L 681 1079 L 682 1080 L 683 1079 L 683 1040 Z  M 602 1040 L 603 1041 L 603 1080 L 604 1079 L 605 1080 L 607 1080 L 608 1079 L 608 1064 L 609 1063 L 613 1063 L 614 1062 L 631 1062 L 631 1058 L 609 1058 L 608 1057 L 608 1046 L 609 1045 L 635 1045 L 635 1044 L 636 1043 L 636 1042 L 638 1040 Z  M 528 1040 L 527 1041 L 525 1041 L 523 1043 L 523 1044 L 522 1045 L 522 1047 L 521 1048 L 521 1070 L 522 1071 L 522 1074 L 523 1075 L 523 1076 L 525 1078 L 526 1078 L 527 1079 L 555 1079 L 557 1077 L 558 1077 L 558 1076 L 559 1075 L 559 1074 L 560 1073 L 560 1046 L 559 1045 L 559 1044 L 556 1041 L 555 1041 L 554 1040 Z  M 529 1046 L 530 1045 L 552 1045 L 555 1048 L 555 1071 L 552 1074 L 529 1074 L 527 1072 L 527 1070 L 526 1069 L 526 1050 L 527 1049 L 527 1047 L 528 1046 Z  M 448 1040 L 447 1041 L 446 1041 L 445 1042 L 444 1042 L 443 1043 L 443 1044 L 442 1045 L 442 1058 L 441 1059 L 441 1066 L 442 1067 L 442 1074 L 443 1075 L 443 1076 L 445 1078 L 446 1078 L 447 1079 L 475 1079 L 476 1078 L 477 1078 L 479 1076 L 479 1075 L 480 1074 L 480 1046 L 479 1045 L 479 1044 L 476 1041 L 475 1041 L 474 1040 Z  M 450 1045 L 472 1045 L 474 1047 L 474 1048 L 475 1049 L 475 1070 L 474 1071 L 474 1072 L 472 1074 L 450 1074 L 447 1071 L 447 1048 Z  M 362 1040 L 362 1079 L 366 1079 L 367 1080 L 367 1064 L 368 1063 L 384 1063 L 386 1065 L 386 1066 L 387 1067 L 387 1068 L 389 1070 L 389 1071 L 390 1072 L 390 1073 L 391 1074 L 391 1075 L 393 1077 L 393 1078 L 395 1080 L 400 1080 L 400 1079 L 398 1077 L 398 1076 L 397 1075 L 397 1074 L 395 1072 L 395 1071 L 394 1070 L 394 1069 L 393 1068 L 393 1067 L 392 1066 L 392 1065 L 391 1064 L 392 1063 L 394 1063 L 395 1062 L 396 1062 L 398 1060 L 398 1059 L 399 1058 L 399 1045 L 398 1044 L 398 1043 L 396 1041 L 394 1041 L 393 1040 Z  M 367 1046 L 368 1045 L 391 1045 L 394 1048 L 394 1056 L 391 1059 L 368 1059 L 367 1058 Z  M 1028 907 L 1028 1002 L 1045 1002 L 1045 966 L 1046 965 L 1095 965 L 1095 964 L 1097 962 L 1097 961 L 1098 960 L 1098 959 L 1100 957 L 1100 956 L 1101 955 L 1101 954 L 1102 953 L 1102 952 L 1104 950 L 1047 950 L 1045 948 L 1045 924 L 1046 923 L 1116 923 L 1116 922 L 1117 921 L 1117 920 L 1119 918 L 1119 917 L 1120 916 L 1120 915 L 1121 914 L 1121 913 L 1123 911 L 1123 910 L 1124 909 L 1124 908 L 1125 907 Z  M 909 907 L 909 1002 L 991 1002 L 992 1001 L 992 1000 L 993 999 L 993 998 L 995 996 L 995 995 L 997 993 L 997 992 L 998 991 L 998 990 L 999 989 L 999 988 L 1001 986 L 927 986 L 926 985 L 926 907 Z  M 790 907 L 789 908 L 786 908 L 785 909 L 784 909 L 783 910 L 782 910 L 781 911 L 780 911 L 775 916 L 775 917 L 774 918 L 774 919 L 773 920 L 773 922 L 772 923 L 772 986 L 773 987 L 773 989 L 774 990 L 774 991 L 775 992 L 775 993 L 781 999 L 782 999 L 783 1000 L 784 1000 L 785 1001 L 787 1001 L 788 1002 L 863 1002 L 864 1001 L 865 1001 L 866 1000 L 868 1000 L 871 997 L 872 997 L 873 996 L 873 995 L 875 993 L 875 992 L 876 991 L 876 990 L 877 989 L 877 988 L 878 987 L 878 922 L 877 921 L 877 919 L 876 918 L 876 917 L 869 910 L 868 910 L 867 909 L 866 909 L 865 908 L 863 908 L 862 907 Z  M 794 924 L 795 923 L 856 923 L 857 924 L 858 924 L 860 926 L 860 927 L 861 928 L 861 930 L 862 931 L 862 978 L 861 979 L 861 981 L 860 982 L 860 983 L 858 985 L 857 985 L 856 986 L 794 986 L 790 982 L 790 981 L 789 980 L 789 929 L 790 928 L 790 927 L 793 924 Z  M 577 907 L 577 908 L 578 909 L 578 911 L 579 912 L 579 913 L 580 914 L 580 915 L 581 916 L 581 918 L 582 919 L 582 920 L 583 921 L 583 922 L 584 923 L 584 925 L 585 926 L 585 927 L 586 928 L 586 929 L 587 930 L 587 932 L 588 933 L 588 934 L 589 935 L 589 937 L 590 938 L 590 939 L 591 940 L 591 942 L 592 943 L 592 944 L 593 945 L 593 947 L 594 948 L 594 949 L 595 950 L 595 952 L 596 953 L 596 954 L 597 955 L 597 957 L 598 958 L 598 959 L 599 960 L 599 962 L 600 963 L 600 964 L 601 965 L 601 967 L 602 968 L 602 969 L 603 970 L 603 972 L 604 973 L 604 974 L 605 975 L 605 977 L 606 978 L 606 979 L 607 980 L 607 982 L 608 983 L 608 984 L 609 985 L 609 987 L 610 988 L 610 989 L 611 990 L 611 992 L 612 993 L 612 994 L 613 995 L 613 997 L 614 998 L 614 999 L 615 1000 L 615 1002 L 633 1002 L 634 1001 L 634 999 L 635 998 L 635 997 L 636 996 L 636 994 L 637 993 L 637 992 L 638 991 L 638 989 L 639 988 L 639 987 L 640 986 L 640 985 L 641 984 L 641 982 L 642 981 L 642 980 L 643 979 L 643 977 L 644 976 L 644 975 L 645 974 L 645 972 L 646 971 L 646 970 L 647 969 L 647 967 L 648 966 L 648 965 L 649 964 L 649 962 L 650 961 L 650 960 L 651 959 L 651 957 L 652 956 L 652 955 L 653 954 L 653 952 L 654 951 L 654 950 L 655 949 L 655 947 L 656 946 L 656 945 L 657 944 L 657 942 L 658 941 L 658 940 L 659 939 L 659 937 L 660 936 L 660 935 L 661 934 L 662 934 L 663 935 L 663 936 L 664 937 L 664 938 L 665 939 L 665 941 L 666 942 L 666 944 L 667 945 L 667 946 L 668 947 L 668 949 L 669 950 L 669 951 L 670 952 L 670 954 L 671 955 L 671 957 L 672 958 L 672 959 L 673 960 L 673 962 L 674 963 L 674 964 L 675 965 L 675 966 L 676 967 L 676 969 L 677 970 L 677 971 L 678 972 L 678 974 L 679 975 L 679 977 L 680 978 L 680 979 L 681 980 L 681 982 L 682 983 L 682 984 L 683 985 L 683 987 L 684 988 L 684 989 L 685 990 L 685 992 L 686 993 L 686 994 L 687 995 L 687 997 L 688 998 L 688 999 L 689 1000 L 689 1002 L 707 1002 L 708 1001 L 708 999 L 709 998 L 709 997 L 710 996 L 710 994 L 711 993 L 711 992 L 712 991 L 712 989 L 713 988 L 713 987 L 714 986 L 714 985 L 715 984 L 715 982 L 716 981 L 716 980 L 717 979 L 717 977 L 718 976 L 718 975 L 719 974 L 719 972 L 720 971 L 720 970 L 721 969 L 721 967 L 722 966 L 722 965 L 723 964 L 723 963 L 724 962 L 724 960 L 725 959 L 725 957 L 726 956 L 726 955 L 727 954 L 727 953 L 728 952 L 728 950 L 729 949 L 729 948 L 730 947 L 730 945 L 731 944 L 731 943 L 732 942 L 732 940 L 733 939 L 733 938 L 734 937 L 734 935 L 735 934 L 735 933 L 736 932 L 736 930 L 737 929 L 737 928 L 738 927 L 738 926 L 739 925 L 739 923 L 740 922 L 740 921 L 741 920 L 741 918 L 742 917 L 742 916 L 743 915 L 743 913 L 744 912 L 744 911 L 745 910 L 745 909 L 746 908 L 746 907 L 727 907 L 726 908 L 726 910 L 725 911 L 725 912 L 724 913 L 724 915 L 723 916 L 723 918 L 722 919 L 722 920 L 721 921 L 721 923 L 720 924 L 720 925 L 719 926 L 719 928 L 718 929 L 718 930 L 717 931 L 717 933 L 716 934 L 716 935 L 715 936 L 715 938 L 714 939 L 714 940 L 713 941 L 713 943 L 712 944 L 712 945 L 711 946 L 711 948 L 710 949 L 710 951 L 709 952 L 709 953 L 708 954 L 708 956 L 707 957 L 707 959 L 706 960 L 706 961 L 705 962 L 705 964 L 704 965 L 704 966 L 703 967 L 703 969 L 702 970 L 702 971 L 701 972 L 701 974 L 700 975 L 700 976 L 699 977 L 697 975 L 697 973 L 696 972 L 696 971 L 695 970 L 695 968 L 694 967 L 694 965 L 693 964 L 693 963 L 692 962 L 692 960 L 691 959 L 691 958 L 690 957 L 690 956 L 689 955 L 689 953 L 688 952 L 688 951 L 687 950 L 687 948 L 686 947 L 686 946 L 685 945 L 685 943 L 684 942 L 684 940 L 683 939 L 683 938 L 682 937 L 682 935 L 681 934 L 681 933 L 680 932 L 680 931 L 679 930 L 679 928 L 678 927 L 678 926 L 677 925 L 677 923 L 676 922 L 676 920 L 675 919 L 675 918 L 674 917 L 674 915 L 673 914 L 673 913 L 672 912 L 672 910 L 671 909 L 671 908 L 670 907 L 653 907 L 653 908 L 652 909 L 652 910 L 651 911 L 651 913 L 650 914 L 650 915 L 649 916 L 649 918 L 648 919 L 648 920 L 647 921 L 647 923 L 646 924 L 646 925 L 645 926 L 645 928 L 644 929 L 644 930 L 643 931 L 643 933 L 642 934 L 642 936 L 641 937 L 641 938 L 640 939 L 640 941 L 639 942 L 639 943 L 638 944 L 638 946 L 637 947 L 637 948 L 636 949 L 636 951 L 635 952 L 635 953 L 634 954 L 634 956 L 633 957 L 633 959 L 632 960 L 632 961 L 631 962 L 631 964 L 630 965 L 630 966 L 629 967 L 629 969 L 628 970 L 628 971 L 627 972 L 627 974 L 626 975 L 626 976 L 625 977 L 623 975 L 623 974 L 622 973 L 622 971 L 621 970 L 621 968 L 620 967 L 620 966 L 619 965 L 619 963 L 618 962 L 618 961 L 617 960 L 617 958 L 616 957 L 616 956 L 615 955 L 615 953 L 614 952 L 614 951 L 613 950 L 613 948 L 612 947 L 612 946 L 611 945 L 611 943 L 610 942 L 610 941 L 609 940 L 609 938 L 608 937 L 608 935 L 607 934 L 607 933 L 606 932 L 606 930 L 605 929 L 605 928 L 604 927 L 604 925 L 603 924 L 603 923 L 602 922 L 602 920 L 601 919 L 601 918 L 600 917 L 600 915 L 599 914 L 599 913 L 598 912 L 598 910 L 597 909 L 597 908 L 596 907 Z  M 438 907 L 438 1002 L 455 1002 L 455 933 L 456 932 L 457 932 L 473 948 L 474 948 L 506 980 L 507 980 L 529 1002 L 547 1002 L 547 911 L 546 910 L 546 907 L 530 907 L 530 975 L 528 977 L 498 947 L 497 947 L 475 925 L 474 925 L 457 908 L 456 908 L 455 907 Z  M 315 907 L 314 908 L 311 908 L 310 909 L 309 909 L 308 910 L 307 910 L 305 912 L 304 912 L 301 915 L 301 916 L 299 918 L 299 920 L 298 921 L 298 922 L 297 923 L 297 986 L 298 987 L 298 989 L 299 990 L 299 991 L 300 992 L 300 993 L 306 999 L 307 999 L 308 1000 L 309 1000 L 310 1001 L 312 1001 L 313 1002 L 388 1002 L 389 1001 L 390 1001 L 391 1000 L 392 1000 L 393 999 L 394 999 L 400 993 L 400 992 L 401 991 L 401 989 L 402 988 L 402 986 L 403 985 L 403 923 L 402 922 L 402 920 L 401 919 L 401 918 L 400 917 L 400 916 L 394 910 L 393 910 L 392 909 L 391 909 L 390 908 L 387 908 L 386 907 Z  M 318 924 L 319 923 L 381 923 L 382 924 L 383 924 L 385 926 L 385 927 L 386 928 L 386 931 L 387 932 L 387 978 L 386 979 L 386 981 L 381 986 L 319 986 L 318 985 L 317 985 L 314 982 L 314 980 L 313 979 L 313 930 L 314 929 L 314 928 L 315 927 L 315 926 L 317 924 Z  M 161 907 L 161 1002 L 178 1002 L 178 969 L 180 967 L 220 967 L 224 971 L 224 972 L 228 976 L 228 977 L 233 982 L 233 983 L 237 987 L 237 988 L 242 993 L 242 994 L 246 998 L 246 999 L 250 1003 L 250 1004 L 254 1008 L 254 1009 L 255 1009 L 256 1010 L 258 1010 L 259 1011 L 262 1011 L 263 1012 L 265 1012 L 266 1013 L 268 1013 L 269 1014 L 271 1014 L 272 1015 L 274 1015 L 275 1016 L 277 1016 L 278 1017 L 280 1017 L 281 1018 L 283 1018 L 284 1019 L 284 1018 L 280 1014 L 280 1013 L 275 1008 L 275 1007 L 270 1002 L 270 1001 L 265 996 L 265 995 L 261 991 L 261 990 L 256 985 L 256 984 L 250 978 L 250 977 L 247 974 L 247 973 L 243 969 L 243 968 L 244 967 L 248 967 L 249 966 L 251 966 L 252 965 L 254 965 L 255 964 L 256 964 L 262 958 L 262 957 L 263 956 L 263 955 L 264 954 L 264 953 L 265 952 L 265 922 L 264 921 L 264 919 L 263 918 L 263 917 L 256 910 L 255 910 L 254 909 L 253 909 L 252 908 L 249 908 L 248 907 Z  M 178 924 L 179 923 L 243 923 L 244 924 L 245 924 L 247 926 L 247 927 L 248 928 L 248 947 L 244 951 L 243 951 L 242 952 L 180 952 L 178 950 Z  M 105 907 L 105 1002 L 122 1002 L 122 907 Z  M 643 495 L 642 496 L 640 496 L 639 497 L 637 497 L 636 498 L 634 498 L 633 499 L 631 499 L 630 500 L 628 500 L 627 501 L 626 501 L 625 502 L 623 502 L 622 503 L 621 503 L 620 504 L 619 504 L 618 505 L 617 505 L 616 506 L 615 506 L 614 507 L 613 507 L 612 508 L 611 508 L 610 509 L 609 509 L 608 510 L 607 510 L 605 512 L 604 512 L 603 513 L 602 513 L 600 515 L 599 515 L 597 517 L 596 517 L 593 520 L 592 520 L 588 524 L 587 524 L 567 544 L 567 545 L 563 549 L 563 550 L 561 552 L 561 553 L 559 555 L 559 556 L 557 558 L 557 559 L 555 561 L 555 562 L 554 563 L 554 564 L 553 565 L 553 566 L 552 567 L 552 568 L 551 569 L 551 570 L 550 571 L 550 572 L 549 573 L 549 574 L 548 575 L 548 576 L 547 577 L 547 579 L 546 580 L 546 582 L 545 583 L 545 585 L 544 586 L 544 588 L 543 589 L 543 591 L 542 592 L 542 595 L 541 596 L 541 600 L 540 601 L 540 605 L 539 606 L 539 607 L 539 606 L 540 605 L 540 604 L 541 603 L 541 602 L 543 600 L 543 599 L 544 598 L 544 597 L 546 595 L 546 594 L 547 593 L 547 592 L 549 590 L 549 589 L 553 585 L 553 584 L 557 580 L 557 579 L 563 573 L 564 574 L 564 603 L 565 604 L 565 612 L 566 613 L 566 618 L 567 619 L 567 623 L 568 624 L 568 628 L 569 629 L 569 632 L 569 627 L 570 626 L 570 616 L 571 615 L 571 609 L 572 608 L 572 603 L 573 602 L 573 598 L 574 597 L 574 594 L 575 593 L 575 590 L 576 589 L 576 587 L 577 586 L 577 583 L 578 582 L 578 580 L 579 579 L 579 577 L 580 576 L 580 574 L 581 573 L 581 572 L 582 571 L 582 570 L 583 569 L 583 567 L 584 566 L 584 565 L 585 564 L 585 563 L 586 562 L 586 561 L 587 560 L 587 559 L 588 558 L 588 557 L 589 556 L 589 555 L 590 554 L 590 553 L 591 552 L 591 551 L 592 550 L 592 549 L 594 547 L 594 546 L 595 545 L 595 544 L 597 542 L 597 541 L 599 539 L 599 538 L 601 536 L 601 535 L 604 532 L 604 531 L 608 527 L 608 526 L 615 519 L 615 518 L 621 512 L 622 512 L 629 505 L 630 505 L 634 501 L 635 501 L 639 497 L 640 497 L 641 496 L 642 496 Z  M 455 446 L 449 452 L 449 453 L 444 458 L 444 459 L 441 462 L 441 463 L 437 467 L 437 468 L 435 470 L 435 471 L 433 473 L 433 474 L 431 476 L 431 477 L 429 479 L 429 480 L 428 481 L 428 482 L 426 484 L 426 485 L 425 486 L 425 487 L 424 488 L 424 489 L 423 490 L 423 491 L 421 493 L 421 494 L 420 495 L 420 496 L 419 497 L 419 498 L 418 499 L 418 500 L 417 501 L 417 503 L 416 504 L 416 505 L 415 506 L 415 507 L 414 508 L 414 509 L 413 510 L 413 511 L 412 512 L 412 514 L 411 515 L 411 516 L 410 517 L 410 519 L 409 520 L 409 522 L 408 523 L 408 524 L 407 525 L 407 527 L 406 528 L 406 530 L 405 531 L 405 533 L 404 534 L 404 536 L 403 537 L 403 540 L 402 541 L 402 544 L 401 545 L 401 547 L 400 548 L 400 553 L 401 554 L 401 555 L 402 556 L 402 558 L 403 559 L 403 560 L 404 561 L 404 563 L 405 564 L 405 565 L 406 566 L 406 568 L 407 569 L 407 570 L 408 571 L 408 572 L 409 573 L 409 575 L 410 576 L 410 577 L 411 578 L 411 579 L 412 580 L 412 581 L 413 582 L 413 583 L 414 584 L 414 585 L 415 586 L 415 587 L 416 588 L 416 589 L 417 590 L 417 592 L 418 593 L 418 594 L 419 595 L 419 596 L 420 597 L 420 598 L 421 599 L 421 600 L 422 601 L 422 602 L 423 603 L 423 604 L 424 605 L 424 606 L 425 607 L 425 608 L 426 609 L 426 610 L 427 611 L 427 612 L 428 613 L 428 614 L 429 615 L 429 616 L 430 617 L 430 618 L 432 620 L 432 621 L 433 622 L 433 623 L 434 624 L 434 625 L 435 626 L 435 627 L 436 628 L 436 629 L 437 630 L 437 631 L 438 632 L 438 633 L 440 635 L 440 636 L 441 637 L 441 638 L 442 639 L 442 640 L 444 642 L 444 643 L 445 644 L 445 645 L 446 646 L 446 647 L 448 649 L 448 650 L 449 651 L 449 652 L 451 654 L 451 655 L 453 657 L 453 658 L 454 659 L 454 660 L 456 662 L 456 663 L 457 664 L 457 665 L 459 667 L 459 668 L 461 670 L 461 671 L 462 672 L 462 673 L 465 676 L 465 677 L 467 679 L 467 680 L 469 682 L 469 683 L 471 685 L 471 686 L 473 688 L 473 689 L 476 692 L 476 693 L 478 695 L 478 696 L 482 700 L 482 701 L 485 704 L 485 705 L 488 708 L 487 707 L 487 704 L 486 703 L 486 699 L 485 698 L 485 694 L 484 693 L 484 689 L 483 688 L 483 684 L 482 683 L 482 677 L 481 676 L 481 669 L 480 668 L 480 636 L 481 635 L 483 637 L 483 640 L 484 641 L 484 642 L 485 643 L 485 645 L 486 646 L 486 647 L 487 648 L 487 650 L 488 651 L 488 652 L 489 653 L 489 654 L 490 655 L 490 656 L 491 657 L 491 658 L 492 659 L 492 660 L 493 661 L 493 663 L 494 664 L 494 665 L 495 666 L 495 667 L 497 669 L 497 670 L 498 671 L 498 672 L 499 673 L 499 674 L 500 675 L 500 676 L 501 677 L 501 678 L 502 679 L 502 680 L 503 681 L 503 682 L 504 683 L 504 684 L 505 685 L 505 686 L 506 687 L 506 688 L 508 690 L 508 691 L 509 692 L 509 693 L 510 694 L 510 695 L 512 697 L 512 698 L 514 700 L 514 701 L 515 702 L 515 703 L 517 705 L 517 706 L 518 707 L 518 708 L 520 710 L 520 711 L 522 713 L 522 714 L 523 715 L 523 716 L 525 718 L 525 719 L 527 721 L 527 722 L 530 725 L 530 726 L 532 728 L 532 729 L 534 731 L 534 732 L 537 735 L 537 736 L 540 739 L 540 740 L 543 743 L 543 744 L 548 749 L 548 750 L 551 753 L 551 754 L 556 759 L 556 760 L 562 766 L 562 767 L 570 775 L 570 776 L 610 816 L 611 816 L 622 827 L 623 827 L 625 829 L 626 829 L 628 827 L 629 827 L 635 821 L 636 821 L 642 815 L 643 815 L 651 807 L 652 807 L 663 796 L 664 796 L 690 770 L 691 770 L 693 768 L 693 767 L 708 752 L 708 751 L 717 742 L 717 741 L 725 733 L 725 732 L 732 725 L 732 724 L 737 719 L 737 718 L 742 713 L 742 712 L 746 708 L 746 707 L 750 703 L 750 702 L 754 698 L 754 697 L 758 693 L 758 692 L 761 689 L 761 688 L 764 685 L 764 684 L 767 681 L 767 680 L 770 677 L 770 676 L 773 673 L 773 672 L 775 670 L 775 669 L 778 666 L 778 665 L 780 663 L 780 662 L 782 660 L 782 659 L 785 656 L 785 655 L 787 653 L 787 652 L 789 650 L 789 649 L 791 647 L 791 646 L 793 644 L 793 643 L 795 641 L 795 640 L 797 638 L 797 637 L 798 636 L 798 635 L 800 633 L 800 632 L 802 630 L 802 629 L 803 628 L 803 627 L 805 625 L 805 624 L 806 623 L 806 622 L 808 620 L 808 619 L 810 617 L 810 616 L 811 615 L 811 614 L 813 612 L 813 611 L 814 610 L 814 609 L 815 608 L 815 607 L 817 605 L 817 604 L 818 603 L 818 602 L 819 601 L 819 600 L 821 598 L 821 597 L 822 596 L 822 595 L 823 594 L 823 593 L 824 592 L 824 591 L 825 590 L 825 589 L 826 588 L 826 587 L 827 586 L 827 585 L 828 584 L 828 583 L 829 582 L 829 581 L 830 580 L 830 579 L 831 578 L 831 577 L 832 576 L 832 575 L 833 574 L 833 573 L 834 572 L 834 571 L 835 570 L 835 569 L 836 568 L 836 566 L 837 565 L 837 564 L 838 563 L 838 562 L 839 561 L 839 560 L 840 559 L 839 559 L 837 561 L 836 561 L 835 562 L 834 562 L 833 563 L 832 563 L 831 564 L 830 564 L 828 566 L 827 566 L 826 567 L 825 567 L 823 569 L 822 569 L 821 570 L 820 570 L 819 571 L 818 571 L 816 573 L 815 573 L 815 574 L 814 575 L 814 576 L 813 577 L 813 578 L 812 579 L 812 580 L 811 581 L 811 582 L 810 583 L 810 584 L 809 585 L 809 586 L 808 587 L 808 588 L 806 590 L 806 591 L 805 592 L 805 593 L 804 594 L 804 595 L 803 596 L 803 597 L 801 599 L 801 600 L 800 601 L 800 602 L 798 604 L 798 605 L 797 606 L 797 607 L 795 609 L 795 610 L 794 611 L 794 612 L 792 614 L 792 615 L 791 616 L 791 617 L 789 619 L 789 620 L 787 622 L 787 623 L 785 625 L 785 626 L 783 628 L 783 629 L 782 630 L 782 631 L 780 633 L 780 634 L 777 637 L 777 638 L 775 640 L 775 641 L 773 643 L 773 644 L 771 646 L 771 647 L 768 650 L 768 651 L 766 653 L 766 654 L 763 657 L 763 658 L 760 661 L 760 662 L 757 665 L 757 666 L 754 669 L 754 670 L 751 673 L 751 674 L 748 677 L 748 678 L 744 682 L 744 683 L 741 686 L 741 687 L 736 692 L 736 693 L 733 696 L 733 697 L 728 702 L 728 703 L 724 707 L 724 708 L 719 713 L 719 714 L 713 720 L 713 721 L 707 727 L 707 728 L 695 740 L 695 741 L 649 787 L 648 787 L 639 796 L 638 796 L 627 807 L 625 807 L 599 781 L 599 780 L 589 770 L 589 769 L 583 763 L 583 762 L 579 758 L 579 757 L 576 754 L 576 753 L 573 750 L 573 749 L 571 747 L 571 746 L 568 743 L 568 742 L 566 740 L 566 739 L 563 736 L 563 735 L 562 734 L 562 733 L 560 731 L 560 730 L 558 728 L 558 727 L 556 725 L 556 724 L 554 722 L 554 721 L 553 720 L 553 719 L 551 717 L 551 716 L 550 715 L 550 714 L 549 713 L 549 712 L 548 711 L 548 710 L 546 708 L 546 707 L 545 706 L 545 705 L 544 704 L 544 703 L 543 702 L 543 701 L 542 700 L 542 699 L 541 698 L 541 697 L 540 696 L 540 695 L 539 694 L 539 693 L 538 692 L 538 691 L 537 690 L 537 689 L 536 688 L 536 686 L 535 685 L 535 684 L 534 683 L 534 682 L 533 681 L 533 679 L 532 678 L 532 677 L 531 676 L 531 675 L 530 674 L 530 672 L 529 671 L 529 670 L 528 669 L 528 667 L 527 666 L 527 664 L 526 663 L 526 661 L 525 660 L 525 658 L 524 657 L 524 655 L 523 654 L 523 651 L 522 650 L 522 648 L 521 647 L 521 644 L 520 643 L 520 640 L 519 639 L 519 636 L 518 635 L 518 631 L 517 630 L 517 627 L 516 626 L 516 621 L 515 620 L 515 614 L 514 613 L 514 606 L 513 605 L 513 588 L 512 587 L 512 582 L 513 581 L 513 566 L 514 565 L 514 557 L 515 556 L 515 551 L 516 550 L 516 546 L 517 545 L 517 541 L 518 540 L 518 537 L 519 536 L 519 534 L 520 533 L 520 530 L 521 529 L 521 527 L 522 526 L 522 524 L 523 523 L 523 521 L 524 520 L 524 519 L 525 518 L 525 516 L 526 515 L 526 513 L 527 512 L 527 511 L 528 510 L 528 509 L 529 508 L 529 507 L 530 506 L 530 504 L 531 503 L 531 502 L 532 501 L 532 500 L 533 499 L 533 498 L 535 496 L 535 495 L 536 494 L 536 493 L 537 492 L 537 491 L 538 490 L 538 489 L 540 487 L 540 486 L 541 485 L 541 484 L 543 482 L 543 481 L 545 479 L 545 478 L 547 476 L 547 475 L 549 473 L 549 472 L 552 469 L 552 468 L 555 465 L 553 467 L 552 467 L 551 468 L 550 468 L 549 469 L 548 469 L 546 471 L 545 471 L 543 473 L 542 473 L 541 474 L 540 474 L 538 476 L 537 476 L 535 478 L 534 478 L 531 481 L 530 481 L 528 483 L 527 483 L 523 487 L 522 487 L 519 490 L 518 490 L 513 495 L 512 495 L 492 515 L 492 516 L 487 521 L 487 522 L 484 525 L 484 526 L 481 529 L 481 530 L 478 533 L 478 534 L 476 536 L 476 537 L 474 539 L 474 540 L 473 541 L 473 542 L 471 544 L 471 545 L 469 547 L 469 548 L 468 549 L 468 550 L 467 551 L 467 552 L 466 553 L 466 554 L 465 555 L 465 556 L 464 557 L 464 558 L 463 559 L 463 560 L 462 561 L 462 562 L 461 563 L 461 564 L 460 565 L 460 566 L 459 567 L 459 568 L 458 569 L 458 571 L 457 572 L 457 573 L 456 574 L 456 576 L 455 577 L 455 578 L 454 579 L 454 581 L 453 582 L 452 582 L 451 581 L 451 579 L 450 578 L 450 576 L 449 575 L 449 572 L 448 571 L 448 568 L 447 567 L 447 563 L 446 562 L 446 558 L 445 557 L 445 552 L 444 551 L 444 544 L 443 543 L 443 530 L 442 529 L 442 517 L 443 516 L 443 500 L 444 499 L 444 491 L 445 490 L 445 485 L 446 484 L 446 479 L 447 478 L 447 473 L 448 472 L 448 469 L 449 468 L 449 464 L 450 463 L 450 460 L 451 459 L 451 457 L 452 456 L 452 454 L 453 453 L 453 451 L 454 450 L 454 448 L 455 447 Z  M 751 235 L 752 236 L 752 241 L 753 242 L 753 247 L 754 248 L 754 252 L 755 252 L 756 253 L 758 253 L 759 254 L 761 254 L 762 255 L 765 255 L 766 256 L 768 256 L 769 257 L 771 257 L 772 258 L 774 258 L 775 259 L 777 259 L 778 260 L 780 260 L 781 261 L 783 261 L 784 262 L 785 262 L 786 263 L 788 263 L 789 264 L 791 264 L 792 265 L 793 265 L 794 266 L 796 266 L 797 267 L 798 267 L 799 268 L 801 268 L 802 269 L 803 269 L 804 270 L 805 270 L 806 271 L 808 271 L 809 272 L 810 272 L 811 273 L 812 273 L 813 274 L 814 274 L 815 275 L 817 275 L 818 276 L 819 276 L 820 277 L 821 277 L 822 278 L 823 278 L 824 279 L 825 279 L 826 280 L 827 280 L 828 281 L 829 281 L 830 282 L 832 282 L 833 283 L 834 283 L 835 284 L 836 284 L 837 285 L 838 285 L 839 286 L 840 286 L 841 287 L 842 287 L 844 289 L 845 289 L 846 290 L 847 290 L 848 291 L 849 291 L 850 292 L 851 292 L 852 293 L 853 293 L 854 294 L 855 294 L 856 295 L 857 295 L 858 296 L 859 296 L 860 297 L 861 297 L 863 299 L 864 299 L 865 300 L 866 300 L 867 301 L 868 301 L 869 302 L 870 302 L 872 304 L 873 304 L 874 305 L 875 305 L 876 306 L 877 306 L 878 307 L 879 307 L 880 308 L 880 345 L 879 346 L 879 364 L 878 365 L 878 377 L 877 378 L 877 388 L 876 389 L 876 397 L 875 398 L 875 405 L 874 406 L 874 412 L 873 413 L 874 414 L 875 414 L 876 415 L 877 415 L 879 417 L 880 417 L 881 418 L 882 418 L 884 420 L 885 420 L 887 422 L 888 422 L 889 423 L 889 416 L 890 415 L 890 408 L 891 407 L 891 398 L 892 397 L 892 389 L 893 388 L 893 377 L 894 376 L 894 360 L 895 359 L 895 331 L 896 330 L 896 298 L 895 298 L 894 297 L 893 297 L 891 295 L 890 295 L 889 294 L 888 294 L 887 293 L 886 293 L 885 292 L 884 292 L 883 291 L 882 291 L 881 290 L 880 290 L 878 288 L 877 288 L 876 287 L 875 287 L 874 286 L 873 286 L 872 285 L 871 285 L 869 283 L 868 283 L 867 282 L 866 282 L 865 281 L 864 281 L 863 280 L 862 280 L 861 279 L 860 279 L 859 278 L 858 278 L 857 277 L 856 277 L 855 276 L 854 276 L 853 275 L 852 275 L 851 274 L 850 274 L 849 273 L 848 273 L 847 272 L 846 272 L 845 271 L 844 271 L 843 270 L 842 270 L 841 269 L 840 269 L 839 268 L 838 268 L 837 267 L 836 267 L 835 266 L 834 266 L 833 265 L 832 265 L 831 264 L 829 264 L 828 263 L 827 263 L 826 262 L 825 262 L 824 261 L 823 261 L 822 260 L 820 260 L 819 259 L 818 259 L 817 258 L 816 258 L 815 257 L 813 257 L 812 256 L 811 256 L 810 255 L 808 255 L 807 254 L 806 254 L 805 253 L 804 253 L 803 252 L 801 252 L 800 251 L 799 251 L 798 250 L 796 250 L 795 249 L 793 249 L 792 248 L 791 248 L 790 247 L 788 247 L 787 246 L 785 246 L 784 245 L 782 245 L 781 244 L 780 244 L 779 243 L 777 243 L 776 242 L 774 242 L 773 241 L 771 241 L 770 240 L 767 240 L 766 239 L 765 239 L 764 238 L 761 238 L 760 237 L 758 237 L 757 236 L 755 236 L 754 235 Z  M 533 218 L 532 219 L 524 219 L 523 220 L 517 220 L 516 221 L 511 221 L 510 222 L 505 222 L 504 223 L 500 223 L 499 224 L 495 224 L 494 225 L 490 225 L 489 226 L 486 226 L 485 227 L 481 227 L 480 228 L 477 228 L 476 229 L 473 229 L 472 230 L 470 230 L 469 231 L 466 231 L 465 232 L 462 232 L 461 233 L 458 233 L 457 234 L 455 234 L 454 235 L 452 235 L 451 236 L 449 236 L 448 237 L 445 237 L 444 238 L 442 238 L 441 239 L 439 239 L 438 240 L 436 240 L 435 241 L 433 241 L 432 242 L 430 242 L 429 243 L 427 243 L 426 244 L 425 244 L 424 245 L 422 245 L 421 246 L 419 246 L 418 247 L 417 247 L 416 248 L 414 248 L 413 249 L 411 249 L 410 250 L 409 250 L 408 251 L 406 251 L 405 252 L 404 252 L 403 253 L 401 253 L 400 254 L 399 254 L 398 255 L 396 255 L 395 256 L 394 256 L 393 257 L 392 257 L 391 258 L 389 258 L 388 259 L 387 259 L 386 260 L 385 260 L 384 261 L 382 261 L 381 262 L 380 262 L 379 263 L 378 263 L 377 264 L 376 264 L 375 265 L 373 265 L 372 266 L 371 266 L 370 267 L 369 267 L 368 268 L 367 268 L 366 269 L 365 269 L 364 270 L 363 270 L 362 271 L 361 271 L 360 272 L 359 272 L 358 273 L 357 273 L 356 274 L 355 274 L 354 275 L 353 275 L 352 276 L 350 276 L 348 278 L 346 278 L 344 280 L 343 280 L 342 281 L 341 281 L 340 282 L 339 282 L 338 283 L 337 283 L 336 284 L 335 284 L 334 285 L 333 285 L 332 286 L 331 286 L 330 287 L 329 287 L 328 288 L 327 288 L 326 289 L 325 289 L 324 290 L 323 290 L 322 291 L 321 291 L 319 293 L 318 293 L 317 294 L 316 294 L 315 295 L 314 295 L 313 296 L 312 296 L 311 297 L 310 297 L 308 299 L 308 314 L 309 315 L 309 336 L 308 337 L 308 340 L 309 341 L 309 384 L 310 385 L 310 399 L 311 400 L 311 411 L 312 412 L 312 421 L 313 422 L 313 430 L 314 431 L 314 438 L 315 439 L 315 446 L 316 447 L 316 453 L 317 454 L 317 459 L 318 460 L 318 465 L 319 466 L 319 471 L 320 472 L 320 477 L 321 478 L 321 482 L 322 483 L 322 487 L 323 488 L 323 492 L 324 493 L 324 497 L 325 498 L 325 501 L 326 502 L 326 506 L 327 507 L 327 510 L 328 511 L 328 514 L 329 515 L 329 518 L 330 519 L 330 522 L 331 523 L 331 526 L 332 527 L 332 530 L 333 531 L 333 534 L 334 535 L 334 537 L 335 538 L 335 540 L 336 541 L 336 543 L 337 544 L 337 547 L 338 548 L 338 550 L 339 551 L 339 553 L 340 554 L 340 556 L 341 557 L 341 559 L 342 560 L 342 562 L 343 563 L 343 564 L 344 565 L 344 567 L 345 568 L 345 570 L 346 571 L 346 573 L 347 574 L 347 575 L 348 576 L 348 578 L 349 579 L 349 580 L 350 581 L 350 583 L 351 584 L 351 585 L 352 586 L 352 588 L 353 589 L 353 590 L 354 591 L 354 592 L 355 593 L 355 594 L 356 595 L 356 597 L 357 598 L 357 599 L 358 600 L 358 601 L 359 602 L 359 603 L 360 604 L 360 605 L 361 606 L 361 607 L 362 608 L 362 609 L 363 610 L 363 612 L 364 613 L 364 614 L 365 615 L 365 616 L 366 617 L 366 618 L 367 619 L 367 620 L 368 621 L 368 622 L 369 623 L 369 624 L 370 625 L 370 626 L 371 627 L 371 628 L 372 629 L 372 630 L 373 631 L 373 632 L 373 630 L 372 629 L 372 627 L 371 626 L 371 624 L 370 623 L 370 621 L 369 620 L 369 617 L 368 616 L 368 614 L 367 613 L 367 610 L 366 609 L 366 607 L 365 606 L 365 603 L 364 602 L 364 599 L 363 598 L 363 595 L 362 594 L 362 592 L 361 591 L 361 588 L 360 587 L 360 584 L 359 583 L 359 580 L 358 579 L 358 577 L 357 576 L 357 572 L 356 571 L 356 568 L 355 567 L 355 564 L 354 563 L 354 560 L 353 559 L 353 556 L 352 555 L 352 551 L 351 550 L 351 547 L 350 546 L 350 543 L 349 542 L 349 538 L 348 537 L 348 534 L 347 533 L 347 529 L 346 528 L 346 524 L 345 523 L 345 520 L 344 519 L 344 515 L 343 514 L 343 510 L 342 509 L 342 505 L 341 504 L 341 500 L 340 499 L 340 495 L 339 494 L 339 490 L 338 489 L 338 484 L 337 483 L 337 478 L 336 477 L 336 472 L 335 471 L 335 467 L 334 466 L 334 461 L 333 460 L 333 454 L 332 453 L 332 448 L 331 447 L 331 441 L 330 440 L 330 433 L 329 432 L 329 425 L 328 424 L 328 416 L 327 415 L 327 405 L 326 404 L 326 392 L 325 391 L 325 373 L 324 372 L 324 309 L 326 307 L 327 307 L 328 306 L 329 306 L 330 305 L 331 305 L 333 303 L 334 303 L 335 302 L 336 302 L 337 301 L 338 301 L 339 300 L 340 300 L 341 299 L 342 299 L 343 298 L 344 298 L 345 297 L 346 297 L 347 296 L 348 296 L 349 295 L 350 295 L 351 294 L 352 294 L 353 293 L 354 293 L 355 292 L 356 292 L 358 290 L 359 290 L 360 289 L 362 289 L 364 287 L 365 287 L 366 286 L 368 286 L 369 285 L 370 285 L 371 284 L 372 284 L 373 283 L 374 283 L 375 282 L 376 282 L 377 281 L 378 281 L 379 280 L 380 280 L 381 279 L 382 279 L 383 278 L 385 278 L 386 277 L 387 277 L 388 276 L 389 276 L 390 275 L 391 275 L 392 274 L 394 274 L 395 273 L 396 273 L 397 272 L 398 272 L 399 271 L 401 271 L 402 270 L 403 270 L 404 269 L 405 269 L 406 268 L 408 268 L 409 267 L 410 267 L 411 266 L 412 266 L 413 265 L 415 265 L 416 264 L 418 264 L 419 263 L 420 263 L 421 262 L 423 262 L 424 261 L 425 261 L 426 260 L 428 260 L 429 259 L 431 259 L 432 258 L 434 258 L 435 257 L 436 257 L 437 256 L 439 256 L 440 255 L 442 255 L 443 254 L 445 254 L 446 253 L 448 253 L 449 252 L 451 252 L 452 251 L 454 251 L 455 250 L 458 250 L 459 249 L 461 249 L 462 248 L 464 248 L 465 247 L 468 247 L 469 246 L 472 246 L 473 245 L 475 245 L 476 244 L 479 244 L 480 243 L 484 243 L 485 242 L 488 242 L 489 241 L 493 241 L 494 240 L 498 240 L 499 239 L 503 239 L 504 238 L 509 238 L 510 237 L 516 237 L 517 236 L 521 236 L 523 234 L 523 233 L 525 231 L 525 230 L 526 229 L 526 228 L 528 226 L 528 225 L 530 223 L 530 222 L 532 220 L 532 219 Z  M 625 162 L 623 164 L 622 164 L 616 170 L 615 170 L 592 193 L 592 194 L 585 201 L 585 202 L 580 207 L 580 208 L 576 212 L 576 213 L 572 217 L 572 218 L 570 220 L 570 221 L 567 224 L 567 225 L 564 228 L 564 229 L 562 231 L 562 232 L 560 234 L 560 235 L 558 237 L 558 238 L 556 240 L 556 241 L 554 243 L 554 244 L 552 246 L 552 247 L 551 248 L 551 249 L 549 251 L 549 252 L 548 253 L 548 254 L 546 256 L 546 257 L 545 258 L 545 259 L 544 260 L 544 261 L 543 262 L 543 263 L 541 265 L 541 266 L 540 267 L 540 268 L 539 269 L 539 270 L 538 271 L 538 272 L 537 273 L 537 274 L 536 275 L 536 277 L 535 278 L 535 279 L 534 280 L 534 281 L 533 282 L 533 283 L 532 284 L 529 284 L 528 285 L 525 285 L 524 286 L 522 286 L 521 287 L 518 287 L 517 288 L 515 288 L 514 289 L 512 289 L 511 290 L 508 290 L 507 291 L 506 291 L 505 292 L 503 292 L 502 293 L 500 293 L 499 294 L 498 294 L 497 295 L 495 295 L 494 296 L 493 296 L 492 297 L 491 297 L 490 298 L 489 298 L 488 299 L 486 299 L 485 300 L 484 300 L 483 301 L 482 301 L 481 302 L 480 302 L 479 303 L 478 303 L 477 304 L 476 304 L 475 305 L 474 305 L 472 307 L 471 307 L 470 308 L 469 308 L 468 309 L 467 309 L 465 311 L 464 311 L 463 312 L 462 312 L 460 314 L 459 314 L 457 316 L 456 316 L 454 318 L 453 318 L 451 320 L 450 320 L 448 322 L 447 322 L 444 325 L 443 325 L 439 329 L 438 329 L 433 334 L 432 334 L 428 338 L 429 337 L 430 337 L 431 336 L 433 336 L 434 335 L 436 335 L 437 334 L 439 334 L 440 333 L 442 333 L 443 332 L 445 332 L 446 331 L 449 331 L 450 330 L 452 330 L 453 329 L 456 329 L 457 328 L 460 328 L 461 327 L 464 327 L 465 326 L 469 326 L 470 325 L 474 325 L 475 324 L 481 324 L 482 323 L 484 323 L 485 324 L 485 325 L 483 327 L 482 327 L 477 332 L 476 332 L 470 338 L 469 338 L 442 365 L 442 366 L 437 371 L 437 372 L 432 377 L 432 378 L 429 381 L 429 382 L 427 384 L 427 385 L 424 388 L 424 389 L 422 391 L 422 392 L 420 394 L 420 395 L 419 396 L 419 397 L 417 399 L 417 400 L 415 402 L 415 403 L 414 404 L 414 405 L 413 406 L 413 407 L 412 408 L 412 409 L 410 411 L 410 412 L 409 413 L 409 414 L 408 415 L 408 416 L 407 417 L 407 418 L 406 419 L 406 420 L 405 421 L 405 422 L 404 423 L 404 425 L 403 426 L 403 427 L 402 428 L 402 429 L 401 430 L 401 432 L 400 433 L 400 434 L 399 435 L 399 437 L 398 438 L 398 439 L 397 440 L 397 442 L 396 443 L 396 445 L 395 446 L 395 448 L 394 449 L 394 452 L 393 453 L 393 455 L 392 456 L 392 459 L 391 460 L 391 463 L 390 464 L 390 468 L 389 469 L 389 473 L 388 474 L 388 479 L 387 480 L 387 482 L 387 481 L 388 480 L 388 478 L 389 477 L 389 476 L 390 475 L 390 474 L 391 473 L 391 472 L 392 471 L 392 470 L 393 469 L 393 468 L 394 467 L 394 466 L 395 465 L 395 464 L 396 463 L 396 462 L 397 461 L 397 460 L 399 458 L 399 457 L 400 456 L 400 455 L 402 453 L 402 452 L 403 451 L 403 450 L 404 449 L 404 448 L 406 446 L 406 445 L 408 443 L 408 442 L 409 441 L 409 440 L 412 437 L 412 436 L 414 434 L 414 433 L 417 430 L 417 429 L 420 426 L 420 425 L 425 420 L 425 419 L 444 400 L 445 400 L 451 394 L 452 394 L 455 391 L 456 391 L 460 387 L 461 387 L 463 385 L 464 385 L 466 383 L 467 383 L 469 381 L 470 381 L 472 379 L 473 379 L 475 377 L 476 377 L 477 376 L 478 376 L 479 375 L 480 375 L 482 373 L 483 373 L 484 372 L 485 372 L 486 371 L 487 371 L 488 370 L 489 370 L 490 369 L 491 369 L 492 368 L 493 368 L 494 367 L 495 367 L 496 366 L 498 366 L 499 365 L 500 365 L 501 364 L 502 364 L 503 363 L 504 363 L 505 362 L 507 362 L 508 361 L 510 361 L 511 360 L 512 360 L 513 359 L 515 359 L 516 358 L 518 358 L 519 357 L 521 357 L 522 356 L 524 356 L 525 355 L 527 355 L 528 354 L 531 354 L 532 353 L 535 353 L 536 352 L 539 352 L 540 351 L 543 351 L 544 350 L 548 350 L 549 349 L 554 349 L 555 348 L 560 348 L 561 347 L 568 347 L 569 346 L 579 346 L 580 345 L 594 345 L 595 344 L 596 345 L 596 346 L 594 348 L 593 348 L 591 350 L 590 350 L 588 352 L 587 352 L 586 353 L 585 353 L 583 355 L 582 355 L 580 357 L 579 357 L 577 359 L 576 359 L 574 361 L 573 361 L 570 364 L 569 364 L 566 367 L 565 367 L 561 371 L 560 371 L 554 377 L 553 377 L 543 387 L 542 387 L 540 389 L 540 390 L 527 403 L 527 404 L 523 408 L 523 409 L 520 412 L 520 413 L 517 416 L 517 417 L 515 419 L 515 420 L 513 422 L 513 423 L 511 425 L 511 426 L 509 428 L 509 429 L 507 431 L 507 432 L 506 433 L 506 434 L 505 435 L 505 436 L 503 438 L 503 439 L 502 440 L 502 441 L 501 442 L 501 443 L 500 444 L 500 445 L 499 446 L 499 447 L 498 448 L 498 449 L 497 450 L 497 451 L 495 453 L 496 453 L 499 450 L 500 450 L 503 447 L 504 447 L 506 445 L 507 445 L 509 443 L 510 443 L 512 441 L 513 441 L 514 440 L 515 440 L 517 438 L 518 438 L 519 437 L 520 437 L 521 436 L 522 436 L 524 434 L 525 434 L 526 433 L 527 433 L 528 432 L 529 432 L 530 431 L 531 431 L 532 430 L 533 430 L 534 429 L 535 429 L 536 428 L 538 428 L 539 427 L 540 427 L 541 426 L 542 426 L 543 425 L 545 425 L 546 424 L 548 424 L 549 423 L 551 423 L 552 422 L 554 422 L 555 421 L 557 421 L 558 420 L 560 420 L 561 419 L 564 419 L 565 418 L 568 418 L 569 417 L 572 417 L 573 416 L 577 416 L 578 415 L 583 415 L 584 414 L 591 414 L 592 413 L 626 413 L 627 414 L 635 414 L 636 415 L 642 415 L 643 416 L 648 416 L 649 417 L 649 419 L 648 420 L 647 420 L 643 424 L 642 424 L 636 430 L 635 430 L 608 457 L 609 457 L 610 456 L 613 456 L 614 455 L 618 455 L 619 454 L 623 454 L 624 453 L 629 453 L 630 452 L 638 452 L 639 451 L 664 451 L 665 452 L 673 452 L 674 453 L 678 453 L 679 454 L 683 454 L 684 455 L 687 455 L 688 456 L 691 456 L 692 457 L 695 457 L 696 458 L 698 458 L 699 459 L 700 459 L 701 460 L 703 460 L 704 461 L 706 461 L 707 462 L 708 462 L 709 463 L 710 463 L 711 464 L 712 464 L 713 465 L 714 465 L 715 466 L 716 466 L 717 467 L 718 467 L 720 469 L 721 469 L 722 470 L 723 470 L 724 471 L 725 471 L 726 472 L 727 472 L 728 473 L 729 473 L 731 475 L 732 475 L 733 476 L 734 476 L 735 477 L 736 477 L 737 478 L 738 478 L 739 479 L 740 479 L 741 480 L 742 480 L 744 482 L 745 482 L 746 483 L 747 483 L 748 484 L 749 484 L 750 485 L 751 485 L 752 486 L 753 486 L 755 488 L 756 488 L 757 489 L 758 489 L 759 490 L 760 490 L 761 491 L 762 491 L 764 493 L 765 493 L 766 494 L 767 494 L 768 495 L 769 495 L 771 497 L 772 497 L 773 498 L 774 498 L 775 499 L 776 499 L 778 501 L 779 501 L 780 502 L 781 502 L 783 504 L 784 504 L 785 505 L 787 505 L 788 506 L 794 506 L 795 505 L 796 505 L 797 504 L 798 504 L 799 503 L 800 503 L 801 502 L 802 502 L 803 501 L 804 501 L 805 500 L 806 500 L 807 499 L 808 499 L 809 498 L 810 498 L 811 497 L 812 497 L 813 496 L 814 496 L 815 495 L 816 495 L 817 494 L 818 494 L 819 493 L 820 493 L 821 492 L 822 492 L 824 490 L 825 490 L 826 489 L 827 489 L 828 488 L 829 488 L 830 487 L 831 487 L 832 486 L 833 486 L 834 485 L 835 485 L 837 483 L 838 483 L 839 482 L 840 482 L 840 480 L 839 479 L 839 478 L 838 477 L 838 476 L 837 475 L 837 474 L 836 473 L 836 472 L 835 471 L 835 470 L 834 469 L 834 468 L 833 467 L 833 465 L 832 464 L 832 463 L 831 462 L 831 461 L 830 460 L 830 459 L 829 458 L 829 457 L 828 456 L 828 455 L 827 454 L 827 453 L 826 452 L 826 451 L 825 450 L 825 449 L 827 447 L 829 447 L 830 446 L 831 446 L 832 445 L 834 445 L 835 444 L 837 444 L 838 443 L 841 443 L 842 442 L 850 442 L 851 441 L 857 441 L 859 443 L 860 443 L 862 445 L 863 445 L 865 447 L 866 447 L 867 448 L 868 448 L 870 450 L 871 450 L 873 452 L 874 452 L 876 454 L 877 454 L 878 455 L 879 455 L 883 459 L 881 461 L 881 462 L 880 463 L 880 464 L 878 466 L 878 467 L 876 469 L 876 470 L 875 471 L 875 472 L 873 474 L 873 475 L 871 477 L 871 478 L 869 480 L 869 481 L 867 483 L 867 484 L 865 486 L 865 487 L 863 489 L 863 490 L 862 491 L 862 492 L 860 494 L 860 495 L 857 498 L 856 498 L 855 499 L 854 499 L 852 501 L 851 501 L 850 502 L 849 502 L 848 503 L 847 503 L 846 504 L 845 504 L 844 505 L 843 505 L 842 506 L 841 506 L 840 507 L 839 507 L 837 509 L 836 509 L 835 510 L 834 510 L 833 511 L 832 511 L 831 512 L 830 512 L 829 513 L 828 513 L 827 514 L 826 514 L 824 516 L 823 516 L 822 517 L 821 517 L 820 518 L 819 518 L 818 519 L 817 519 L 816 520 L 815 520 L 813 522 L 812 522 L 811 523 L 810 523 L 809 524 L 808 524 L 807 525 L 806 525 L 805 526 L 804 526 L 802 528 L 801 528 L 800 529 L 799 529 L 798 530 L 797 530 L 796 531 L 795 531 L 794 532 L 793 532 L 791 534 L 790 534 L 789 533 L 784 533 L 783 532 L 779 532 L 778 531 L 773 531 L 772 530 L 768 530 L 767 529 L 762 529 L 761 528 L 757 528 L 756 527 L 752 527 L 751 526 L 746 526 L 745 525 L 740 525 L 739 524 L 735 524 L 734 523 L 730 523 L 729 522 L 724 522 L 723 521 L 722 522 L 721 522 L 720 523 L 718 523 L 717 524 L 716 524 L 715 525 L 714 525 L 713 526 L 712 526 L 711 527 L 709 527 L 707 529 L 705 529 L 703 531 L 702 531 L 701 532 L 700 532 L 699 533 L 698 533 L 696 535 L 695 535 L 694 536 L 693 536 L 691 538 L 690 538 L 687 541 L 686 541 L 682 545 L 681 545 L 662 564 L 662 565 L 660 567 L 660 568 L 657 571 L 657 572 L 655 574 L 655 575 L 653 577 L 653 578 L 652 579 L 652 580 L 650 582 L 650 583 L 649 584 L 649 585 L 648 586 L 648 587 L 647 588 L 647 589 L 646 590 L 646 591 L 645 592 L 645 594 L 644 595 L 644 596 L 643 597 L 643 599 L 642 600 L 642 601 L 641 602 L 641 604 L 640 605 L 640 607 L 639 608 L 639 610 L 638 611 L 638 614 L 637 615 L 637 618 L 636 619 L 636 623 L 635 624 L 635 629 L 634 630 L 634 641 L 633 642 L 633 653 L 634 654 L 634 666 L 635 667 L 635 673 L 636 674 L 636 679 L 637 680 L 637 683 L 638 684 L 638 688 L 639 689 L 639 691 L 640 692 L 640 695 L 641 696 L 641 697 L 642 698 L 642 700 L 643 701 L 643 703 L 644 704 L 644 705 L 645 706 L 645 708 L 646 709 L 646 711 L 646 709 L 645 708 L 645 704 L 644 703 L 644 695 L 643 694 L 643 677 L 642 676 L 642 667 L 643 666 L 643 651 L 644 650 L 644 642 L 645 641 L 645 635 L 646 634 L 646 631 L 647 630 L 647 627 L 648 626 L 648 623 L 649 622 L 649 620 L 650 619 L 650 617 L 651 616 L 651 614 L 652 613 L 652 611 L 653 610 L 653 608 L 654 607 L 654 606 L 655 605 L 655 603 L 656 602 L 656 601 L 657 600 L 657 599 L 658 598 L 658 597 L 659 596 L 659 595 L 660 594 L 660 593 L 661 592 L 661 591 L 662 590 L 662 589 L 663 588 L 663 587 L 665 585 L 665 584 L 666 583 L 666 582 L 668 580 L 668 579 L 670 577 L 670 576 L 672 574 L 672 573 L 676 569 L 676 568 L 695 549 L 696 549 L 699 546 L 700 546 L 703 543 L 704 543 L 706 541 L 707 541 L 709 539 L 710 539 L 711 538 L 712 538 L 714 536 L 715 536 L 716 535 L 717 535 L 718 534 L 719 534 L 720 533 L 721 533 L 722 532 L 723 532 L 724 531 L 729 531 L 730 532 L 735 532 L 736 533 L 741 533 L 742 534 L 746 534 L 747 535 L 752 535 L 753 536 L 757 536 L 758 537 L 763 537 L 764 538 L 768 538 L 769 539 L 774 539 L 775 540 L 779 540 L 780 541 L 785 541 L 786 542 L 791 542 L 792 543 L 793 542 L 794 542 L 796 540 L 797 540 L 798 539 L 799 539 L 800 538 L 801 538 L 802 537 L 803 537 L 804 536 L 805 536 L 806 535 L 807 535 L 808 534 L 809 534 L 810 533 L 811 533 L 813 531 L 814 531 L 815 530 L 816 530 L 817 529 L 818 529 L 819 528 L 820 528 L 821 527 L 822 527 L 823 526 L 824 526 L 826 524 L 827 524 L 828 523 L 829 523 L 830 522 L 831 522 L 832 521 L 833 521 L 834 520 L 835 520 L 836 519 L 837 519 L 839 517 L 840 517 L 841 516 L 842 516 L 843 515 L 844 515 L 845 514 L 846 514 L 847 513 L 848 513 L 849 512 L 850 512 L 852 510 L 853 510 L 854 509 L 855 509 L 856 508 L 857 508 L 858 507 L 859 507 L 860 506 L 861 506 L 862 505 L 863 505 L 864 504 L 865 504 L 866 503 L 866 502 L 867 501 L 867 500 L 869 498 L 869 497 L 870 496 L 870 495 L 872 493 L 872 492 L 874 490 L 874 489 L 876 487 L 876 486 L 878 484 L 878 483 L 880 481 L 880 480 L 881 479 L 881 478 L 883 476 L 883 475 L 885 473 L 885 472 L 887 470 L 887 469 L 888 468 L 888 467 L 890 465 L 890 464 L 892 462 L 892 461 L 893 460 L 893 459 L 895 457 L 895 455 L 894 454 L 893 454 L 892 453 L 891 453 L 889 451 L 888 451 L 887 450 L 886 450 L 885 449 L 884 449 L 882 447 L 881 447 L 880 446 L 879 446 L 877 444 L 876 444 L 875 443 L 874 443 L 873 442 L 872 442 L 870 440 L 869 440 L 868 439 L 867 439 L 866 438 L 865 438 L 863 436 L 862 436 L 861 435 L 860 435 L 859 434 L 858 434 L 856 432 L 855 432 L 854 431 L 853 431 L 851 429 L 850 429 L 849 428 L 848 428 L 847 427 L 846 427 L 845 426 L 844 426 L 842 424 L 841 424 L 840 423 L 839 423 L 838 422 L 837 422 L 835 420 L 834 420 L 833 419 L 832 419 L 831 418 L 830 418 L 828 416 L 827 416 L 826 415 L 825 415 L 824 414 L 823 414 L 821 412 L 820 412 L 819 411 L 818 411 L 817 410 L 816 410 L 814 408 L 813 408 L 812 407 L 811 407 L 809 405 L 808 405 L 807 404 L 806 404 L 805 403 L 804 403 L 802 401 L 801 401 L 800 400 L 799 400 L 798 399 L 797 399 L 795 397 L 794 397 L 793 396 L 792 396 L 790 394 L 789 394 L 788 393 L 787 393 L 786 392 L 785 392 L 783 390 L 782 390 L 781 389 L 780 389 L 779 388 L 778 388 L 776 386 L 775 386 L 774 385 L 773 385 L 770 382 L 770 378 L 769 377 L 769 374 L 768 373 L 768 369 L 767 368 L 767 365 L 766 364 L 766 360 L 765 359 L 765 356 L 764 355 L 764 352 L 763 351 L 763 348 L 762 347 L 762 343 L 761 342 L 761 339 L 760 338 L 760 335 L 759 334 L 759 330 L 758 329 L 758 326 L 753 321 L 752 321 L 744 313 L 743 313 L 736 306 L 735 306 L 728 299 L 727 299 L 719 291 L 719 255 L 718 254 L 718 239 L 717 238 L 717 229 L 716 228 L 716 220 L 715 219 L 715 213 L 714 212 L 714 209 L 713 208 L 713 204 L 712 203 L 712 200 L 711 199 L 711 196 L 710 195 L 710 193 L 709 194 L 708 194 L 704 198 L 703 198 L 700 201 L 699 201 L 694 206 L 693 206 L 683 216 L 682 216 L 679 219 L 679 220 L 672 227 L 672 228 L 669 231 L 669 232 L 667 234 L 667 235 L 665 237 L 665 238 L 664 239 L 664 247 L 665 248 L 665 254 L 666 255 L 666 263 L 668 265 L 669 265 L 671 267 L 672 267 L 673 268 L 674 268 L 676 270 L 677 270 L 680 273 L 681 273 L 683 275 L 684 275 L 687 278 L 688 278 L 691 281 L 692 281 L 694 283 L 695 283 L 710 298 L 709 299 L 708 299 L 707 298 L 706 298 L 705 297 L 704 297 L 703 296 L 702 296 L 701 295 L 700 295 L 699 294 L 697 294 L 696 293 L 695 293 L 694 292 L 693 292 L 692 291 L 691 291 L 690 290 L 689 290 L 688 289 L 687 289 L 686 288 L 685 288 L 684 287 L 682 287 L 681 286 L 680 286 L 679 285 L 678 285 L 677 284 L 676 284 L 675 283 L 674 283 L 673 282 L 672 282 L 671 281 L 670 281 L 669 280 L 668 280 L 667 279 L 666 279 L 665 278 L 664 278 L 663 277 L 662 277 L 661 276 L 660 276 L 659 275 L 658 275 L 657 274 L 656 274 L 655 273 L 654 273 L 653 272 L 653 269 L 652 268 L 652 264 L 651 263 L 651 259 L 650 258 L 650 255 L 649 254 L 649 250 L 648 249 L 648 247 L 647 246 L 647 242 L 646 241 L 646 239 L 645 238 L 645 234 L 644 233 L 644 230 L 643 229 L 643 226 L 642 225 L 642 223 L 641 222 L 641 219 L 640 218 L 640 215 L 639 214 L 639 212 L 638 211 L 638 208 L 637 207 L 637 204 L 636 203 L 636 201 L 635 200 L 635 197 L 634 196 L 634 193 L 633 192 L 633 190 L 632 189 L 632 186 L 631 185 L 631 183 L 630 182 L 630 179 L 629 178 L 629 176 L 628 175 L 628 173 L 627 172 L 627 169 L 626 168 L 626 165 L 625 164 Z  M 671 353 L 672 352 L 674 352 L 675 353 L 679 353 L 680 354 L 684 354 L 685 355 L 689 355 L 690 356 L 693 356 L 694 357 L 698 357 L 699 358 L 702 358 L 703 359 L 706 359 L 707 360 L 711 360 L 712 361 L 715 361 L 716 362 L 719 362 L 720 363 L 724 363 L 725 364 L 728 364 L 729 365 L 731 365 L 735 369 L 735 370 L 738 373 L 738 374 L 741 377 L 741 378 L 745 382 L 745 383 L 750 388 L 750 389 L 755 394 L 755 395 L 759 399 L 759 400 L 763 404 L 763 405 L 762 406 L 760 406 L 759 405 L 758 405 L 757 404 L 755 404 L 754 403 L 752 403 L 751 402 L 750 402 L 749 401 L 747 401 L 746 400 L 744 400 L 743 399 L 741 399 L 740 398 L 738 398 L 737 397 L 735 397 L 734 396 L 731 396 L 730 395 L 727 395 L 726 394 L 723 394 L 722 393 L 720 393 L 719 392 L 716 392 L 715 391 L 712 391 L 711 390 L 707 390 L 706 389 L 705 389 L 675 359 L 675 358 L 671 354 Z  M 704 211 L 705 211 L 706 212 L 706 216 L 707 217 L 707 223 L 708 224 L 708 230 L 709 231 L 709 241 L 710 242 L 710 287 L 709 288 L 708 288 L 704 284 L 703 284 L 700 281 L 699 281 L 697 279 L 696 279 L 693 276 L 692 276 L 690 274 L 689 274 L 687 272 L 686 272 L 684 270 L 683 270 L 681 268 L 680 268 L 677 265 L 676 265 L 674 263 L 673 263 L 672 262 L 671 262 L 670 261 L 669 261 L 668 260 L 668 258 L 669 257 L 669 255 L 670 254 L 670 252 L 671 251 L 671 249 L 672 248 L 672 246 L 673 245 L 673 244 L 674 243 L 674 242 L 675 241 L 675 240 L 677 238 L 677 237 L 681 233 L 681 232 L 691 222 L 692 222 L 701 213 L 702 213 Z  M 618 184 L 619 184 L 620 185 L 620 186 L 621 187 L 621 189 L 622 190 L 622 193 L 623 194 L 623 196 L 624 197 L 624 199 L 625 200 L 625 202 L 626 203 L 626 205 L 627 206 L 627 209 L 628 210 L 628 213 L 629 214 L 629 217 L 630 218 L 630 220 L 631 221 L 631 224 L 632 225 L 632 227 L 633 228 L 633 231 L 634 232 L 634 235 L 635 236 L 635 239 L 636 240 L 636 243 L 637 244 L 637 247 L 638 248 L 638 251 L 639 252 L 639 255 L 640 256 L 640 259 L 641 260 L 641 262 L 642 263 L 642 266 L 643 267 L 643 270 L 644 271 L 644 274 L 654 284 L 654 285 L 661 292 L 661 293 L 660 294 L 659 294 L 658 293 L 657 293 L 655 291 L 654 291 L 653 290 L 652 290 L 651 289 L 649 289 L 648 288 L 647 288 L 646 287 L 645 287 L 643 285 L 642 285 L 641 284 L 640 284 L 639 283 L 638 283 L 637 282 L 636 282 L 635 281 L 634 281 L 632 279 L 632 277 L 631 276 L 631 274 L 630 273 L 630 271 L 629 270 L 629 268 L 628 267 L 628 265 L 627 264 L 627 262 L 626 261 L 626 259 L 625 258 L 625 256 L 624 255 L 624 253 L 623 252 L 623 250 L 622 249 L 622 248 L 621 247 L 621 245 L 620 244 L 620 242 L 619 241 L 619 239 L 618 238 L 618 236 L 617 235 L 617 234 L 616 233 L 616 231 L 615 230 L 615 229 L 614 228 L 614 226 L 613 225 L 612 226 L 612 227 L 611 228 L 611 229 L 610 230 L 610 231 L 609 232 L 609 233 L 608 234 L 608 235 L 607 236 L 607 238 L 606 239 L 606 240 L 605 241 L 605 242 L 604 243 L 604 245 L 603 246 L 603 247 L 602 248 L 602 250 L 601 251 L 601 253 L 600 254 L 600 256 L 599 257 L 599 259 L 598 260 L 598 262 L 597 263 L 597 265 L 596 266 L 596 268 L 595 269 L 595 271 L 594 272 L 594 275 L 593 276 L 593 278 L 592 279 L 592 281 L 591 282 L 591 283 L 592 283 L 593 282 L 596 282 L 597 281 L 602 281 L 603 280 L 607 280 L 608 279 L 612 279 L 613 278 L 618 278 L 619 279 L 590 308 L 591 308 L 592 309 L 594 309 L 595 310 L 598 310 L 599 311 L 602 311 L 603 312 L 605 312 L 606 313 L 609 313 L 610 314 L 612 314 L 613 315 L 616 315 L 617 316 L 620 316 L 621 317 L 622 317 L 623 318 L 622 319 L 620 319 L 619 320 L 613 320 L 612 321 L 605 321 L 604 322 L 597 322 L 596 323 L 589 323 L 588 324 L 581 324 L 580 325 L 572 325 L 571 326 L 564 326 L 563 327 L 557 327 L 556 328 L 549 328 L 548 329 L 543 329 L 542 328 L 543 327 L 543 324 L 544 323 L 544 321 L 545 320 L 545 317 L 546 316 L 546 313 L 547 312 L 547 310 L 548 309 L 548 306 L 549 305 L 549 303 L 550 302 L 550 300 L 551 299 L 551 297 L 552 296 L 552 294 L 553 293 L 553 291 L 554 290 L 554 288 L 555 287 L 555 286 L 556 285 L 556 283 L 557 282 L 557 280 L 558 279 L 558 278 L 559 277 L 559 275 L 560 274 L 560 273 L 561 272 L 561 271 L 562 270 L 562 268 L 563 267 L 563 266 L 564 265 L 564 264 L 565 263 L 565 261 L 566 260 L 566 259 L 567 258 L 567 257 L 568 256 L 568 255 L 569 254 L 569 253 L 570 252 L 570 251 L 571 250 L 571 249 L 572 248 L 572 247 L 573 246 L 573 245 L 575 243 L 575 242 L 576 241 L 576 240 L 577 239 L 577 238 L 579 236 L 579 235 L 580 234 L 580 233 L 581 232 L 581 231 L 583 229 L 583 228 L 585 226 L 585 225 L 587 223 L 587 222 L 588 221 L 588 220 L 591 217 L 591 216 L 593 214 L 593 213 L 596 210 L 596 209 L 599 206 L 599 205 L 603 201 L 603 200 L 613 190 L 613 189 Z " fill="white" fill-rule="evenodd"/>
</svg>